# xmcd CD database file
#
# Track frame offsets:
#	150
#	16331
#	32758
#	51899
#	70008
#	89650
#	107310
#	123584
#	137902
#	154046
#	171127
#	189591
#	210521
#	229514
#	247290
#	269669
#	284037
#	301841
#
# Disc length: 4301 seconds
#
# Revision: 2
# Processed by: cddbd v1.5.2PL0 Copyright (c) Steve Scherf et al.
# Submitted via: CDex 2.10
#
DISCID=0510cb12
DTITLE=YUI - GREEN GARDEN POP
DYEAR=2013
DGENRE=JPop
TTITLE0=HELLO
TTITLE1=How crazy
TTITLE2=again
TTITLE3=LIFE
TTITLE4=Laugh away
TTITLE5=My Generation
TTITLE6=Shake My Heart
TTITLE7=Rolling star
TTITLE8=Namidairo
TTITLE9=I do it
TTITLE10=I remenber you
TTITLE11=Green a.live
TTITLE12=It's all too much
TTITLE13=Please Stay With Me
TTITLE14=fight
TTITLE15=Your Heaven
TTITLE16=YOU
TTITLE17=Good-bye days
EXTD=YEAR: 2013
EXTT0=
EXTT1=
EXTT2=
EXTT3=
EXTT4=
EXTT5=
EXTT6=
EXTT7=
EXTT8=
EXTT9=
EXTT10=
EXTT11=
EXTT12=
EXTT13=
EXTT14=
EXTT15=
EXTT16=
EXTT17=
PLAYORDER=
